<svg width="45" height="20" fill="none" xmlns="http://www.w3.org/2000/svg"><path d="M35.038 13.473a1.204 1.204 0 11-.001 2.407 1.204 1.204 0 010-2.408z" fill="#0A191E"/><path d="M3.012 4.242L11.473.851A11.797 11.797 0 0115.884 0h5.187c1.858 0 3.717.445 5.373 1.288l7.668 3.899 5.5.802a5.61 5.61 0 014.8 5.552v3.246a.909.909 0 01-.909.908h-3.896a4.66 4.66 0 01-1.304 2.337 4.661 4.661 0 01-3.266 1.326 4.66 4.66 0 01-3.265-1.326 4.663 4.663 0 01-1.305-2.337H14.189a4.649 4.649 0 01-1.305 2.336 4.654 4.654 0 01-3.264 1.327 4.658 4.658 0 01-3.265-1.326 4.655 4.655 0 01-1.305-2.337H.908A.909.909 0 010 14.787V8.694a4.775 4.775 0 013.012-4.452zm9.137-1.705L5.617 5.155h4.93l2.169-2.825c-.19.063-.379.132-.567.207zm8.07-.72h-4.335c-.165 0-.33.003-.493.011l-2.554 3.327h7.382V1.816zm5.402 1.09a10.077 10.077 0 00-3.585-1.042v3.29h8.006l-4.42-2.248zM39.49 7.811a3.294 3.294 0 002.837 2.34 3.818 3.818 0 00-2.837-2.34zm-4.452 9.73a2.864 2.864 0 100-5.728 2.864 2.864 0 000 5.728zm-25.42 0a2.865 2.865 0 10.001-5.73 2.865 2.865 0 000 5.73zm-7.802-3.663h3.192A4.688 4.688 0 019.62 9.996a4.688 4.688 0 014.61 3.882h16.195a4.689 4.689 0 014.612-3.882 4.688 4.688 0 014.612 3.882h2.946v-1.896a5.108 5.108 0 01-5.013-4.454l-3.82-.557H5.246v1.183a3.018 3.018 0 01-3.014 3.014h-.415v2.71zm0-4.526h.415a1.2 1.2 0 001.197-1.198V6.972H2.363a2.977 2.977 0 00-.547 1.722v.658z" fill="#0A191E"/><path d="M9.619 13.473a1.204 1.204 0 110 2.408 1.204 1.204 0 010-2.409z" fill="#0A191E"/></svg>