<svg width="35" height="28" fill="none" xmlns="http://www.w3.org/2000/svg"><path d="M32.028 8.605a5.148 5.148 0 00-5.037-4.119 5.14 5.14 0 00-2.147.471l-.24-.769a4.95 4.95 0 00-2.787-3.087 4.951 4.951 0 00-4.157.121 2.919 2.919 0 01-2.953-.207l-.209-.143a4.962 4.962 0 00-6.416.685L5.643 4.144l-3.356-1.25v5.71H0v3.746a17.398 17.398 0 007.805 14.53l.256.17h18.724l.257-.17a17.398 17.398 0 007.805-14.529V8.605h-2.819zm-2.113 0H26.58a5.112 5.112 0 00-.77-1.842 3.096 3.096 0 014.106 1.842zm-5.45 0h-5.847a3.102 3.102 0 012.924-2.077c1.35 0 2.5.869 2.924 2.077zM9.568 2.958a2.902 2.902 0 013.775-.403l.209.143a4.961 4.961 0 005.019.352 2.912 2.912 0 014.013 1.542 5.148 5.148 0 00-5.986 3.636L7.72 4.918l1.848-1.96zM4.33 5.833l7.433 2.772H4.33V5.833zm-2.287 4.813h30.763s-.003 1.932-.005 2.045H2.047c-.002-.113-.005-2.045-.005-2.045zm24.123 14.361H8.682a15.358 15.358 0 01-6.455-10.274H32.62a15.358 15.358 0 01-6.455 10.274z" fill="#F1F2F6"/></svg>