<svg width="16" height="17" viewBox="0 0 16 17" fill="none" xmlns="http://www.w3.org/2000/svg">
<path d="M12.2494 5.49974C12.2494 4.30634 11.7753 3.16181 10.9314 2.31794C10.0875 1.47408 8.94302 1 7.74961 1C6.55621 1 5.41168 1.47408 4.56781 2.31794C3.72395 3.16181 3.24987 4.30634 3.24987 5.49974C3.24987 10.7494 1 12.2494 1 12.2494H14.4992C14.4992 12.2494 12.2494 10.7494 12.2494 5.49974Z" stroke="#C6C7CA" stroke-width="2" stroke-linecap="round" stroke-linejoin="round"/>
<path d="M9.04703 15.2492C8.91518 15.4765 8.72593 15.6651 8.49823 15.7963C8.27053 15.9274 8.01237 15.9965 7.7496 15.9965C7.48683 15.9965 7.22868 15.9274 7.00098 15.7963C6.77328 15.6651 6.58403 15.4765 6.45218 15.2492" stroke="#C6C7CA" stroke-width="2" stroke-linecap="round" stroke-linejoin="round"/>
</svg>
