<svg width="45" height="20" viewBox="0 0 45 20" fill="none" xmlns="http://www.w3.org/2000/svg">
<path d="M35.0379 13.4725C35.7026 13.4725 36.2412 14.0119 36.2412 14.6768C36.2412 15.3416 35.7026 15.8811 35.0379 15.8811C34.3721 15.8811 33.8335 15.3417 33.8335 14.6768C33.8335 14.0119 34.3721 13.4725 35.0379 13.4725Z" fill="#0A191E"/>
<path d="M3.01157 4.24226L11.4734 0.851018C12.882 0.286072 14.366 0 15.8845 0H21.0713C22.9295 0 24.7877 0.444983 26.4443 1.28785L34.1115 5.18678L39.6116 5.98871C40.9448 6.18309 42.1637 6.85152 43.0455 7.87143C43.9265 8.89055 44.4115 10.1938 44.4115 11.5407V14.7866C44.4115 15.288 44.0046 15.6948 43.5033 15.6948H39.607C39.4118 16.5785 38.964 17.3868 38.3029 18.0316C37.4238 18.8863 36.2639 19.3576 35.037 19.3576C33.8109 19.3576 32.6511 18.8863 31.772 18.0316C31.1099 17.3859 30.6612 16.5757 30.4669 15.6948H14.189C13.9937 16.5785 13.546 17.3868 12.8839 18.0307C12.0056 18.8863 10.8459 19.3576 9.61979 19.3576C8.39283 19.3576 7.23301 18.8863 6.35476 18.0316C5.69266 17.3868 5.2449 16.5784 5.04964 15.6948H0.90818C0.406818 15.6948 0 15.2879 0 14.7866V8.69434C-8.7738e-05 6.72349 1.18237 4.97618 3.01157 4.24226ZM12.1491 2.53666L5.6172 5.15504H10.5461L12.7158 2.32961C12.526 2.39319 12.337 2.46224 12.1491 2.53666ZM20.2194 1.81645H15.8845C15.7192 1.81645 15.5548 1.82009 15.3914 1.82825L12.8366 5.15504H20.2194V1.81645ZM25.6215 2.90722C24.5053 2.33959 23.2819 1.98542 22.0359 1.86459V5.15504H30.0417L25.6215 2.90722ZM39.4899 7.81062C39.8631 9.07392 40.9775 10.0221 42.3271 10.1511C41.854 8.96411 40.7941 8.05133 39.4899 7.81062ZM35.0379 17.5413C36.6199 17.5413 37.9023 16.2589 37.9023 14.6768C37.9023 13.0947 36.6199 11.8123 35.0379 11.8123C33.4558 11.8123 32.1734 13.0947 32.1734 14.6768C32.1733 16.2589 33.4557 17.5413 35.0379 17.5413ZM9.61874 17.5413C11.2008 17.5413 12.4842 16.2589 12.4842 14.6768C12.4842 13.0947 11.2008 11.8123 9.61874 11.8123C8.03667 11.8123 6.75429 13.0947 6.75429 14.6768C6.75429 16.2589 8.03667 17.5413 9.61874 17.5413ZM1.81636 13.8784H5.00784C5.38837 11.6769 7.31013 9.99581 9.6197 9.99581C11.9284 9.99581 13.8502 11.6769 14.2307 13.8784H30.425C30.8056 11.6769 32.7283 9.99581 35.0369 9.99581C37.3465 9.99581 39.2682 11.6769 39.6488 13.8784H42.595V11.9821C40.022 11.9585 37.8987 10.0222 37.5817 7.52819L33.7627 6.97149H10.9938C10.9938 6.97149 10.9938 6.97149 10.9929 6.97149C10.9929 6.97149 10.9929 6.97149 10.992 6.97149H5.2449V8.15394C5.2449 9.816 3.8926 11.1683 2.23142 11.1683H1.81636V13.8784ZM1.81636 9.35193H2.23142C2.89083 9.35193 3.42845 8.81431 3.42845 8.15403V6.97157H2.36309C2.01526 7.46383 1.81636 8.05957 1.81636 8.69443V9.35193Z" fill="#0A191E"/>
<path d="M9.61875 13.4725C10.2845 13.4725 10.8231 14.0119 10.8231 14.6768C10.8231 15.3416 10.2845 15.8811 9.61875 15.8811C8.95396 15.8811 8.41538 15.3417 8.41538 14.6768C8.41538 14.0119 8.95396 13.4725 9.61875 13.4725Z" fill="#0A191E"/>
</svg>
