<svg width="15" height="17" viewBox="0 0 15 17" fill="none" xmlns="http://www.w3.org/2000/svg">
<path d="M3.16667 1L1 3.88889V14C1 14.3831 1.15218 14.7505 1.42307 15.0214C1.69395 15.2923 2.06135 15.4444 2.44444 15.4444H12.5556C12.9386 15.4444 13.306 15.2923 13.5769 15.0214C13.8478 14.7505 14 14.3831 14 14V3.88889L11.8333 1H3.16667Z" stroke="white" stroke-width="1.5" stroke-linecap="round" stroke-linejoin="round"/>
<path d="M1 3.88892H14" stroke="white" stroke-width="1.5" stroke-linecap="round" stroke-linejoin="round"/>
<path d="M10.3889 6.77777C10.3889 7.54395 10.0845 8.27875 9.54276 8.82052C9.00098 9.3623 8.26618 9.66666 7.5 9.66666C6.73382 9.66666 5.99902 9.3623 5.45725 8.82052C4.91548 8.27875 4.61111 7.54395 4.61111 6.77777" stroke="white" stroke-width="1.5" stroke-linecap="round" stroke-linejoin="round"/>
</svg>
