<svg width="35" height="28" viewBox="0 0 35 28" fill="none" xmlns="http://www.w3.org/2000/svg">
<path d="M32.0284 8.60458C31.5535 6.25813 29.4755 4.48605 26.9912 4.48605C26.2431 4.48605 25.512 4.6498 24.844 4.95702L24.6048 4.18835C24.1723 2.79809 23.1563 1.67278 21.8173 1.10107C20.4783 0.529298 18.9629 0.573537 17.6596 1.22249C16.7114 1.69456 15.5801 1.6152 14.7073 1.01538L14.4985 0.871913C13.5238 0.202132 12.3393 -0.0976728 11.1633 0.0280345C9.98729 0.153674 8.89289 0.696794 8.08168 1.55742L5.64315 4.14425L2.28744 2.89317V8.60458H0V12.3501C0 18.2058 2.91767 23.6371 7.80481 26.8787L8.06133 27.0489H26.7854L27.042 26.8787C31.9292 23.6371 34.8468 18.2059 34.8468 12.3501V8.60458H32.0284ZM29.9151 8.60458H26.5792C26.4436 7.93459 26.1774 7.31143 25.8082 6.763C26.1801 6.60932 26.5814 6.52785 26.9911 6.52785C28.3415 6.52792 29.4921 7.39678 29.9151 8.60458ZM24.4659 8.60458H18.618C19.0409 7.39678 20.1916 6.52785 21.5419 6.52785C22.8923 6.52792 24.0429 7.39678 24.4659 8.60458ZM9.56743 2.95789C10.561 1.90405 12.1483 1.73424 13.3421 2.55463L13.5509 2.69811C15.0347 3.71785 16.9579 3.85282 18.5696 3.05025C19.3364 2.66843 20.2278 2.64236 21.0154 2.97879C21.7367 3.28676 22.2979 3.86833 22.5828 4.59209C22.2466 4.52266 21.8984 4.48598 21.5419 4.48598C19.1925 4.48598 17.2077 6.07124 16.5972 8.22786L7.71946 4.91816L9.56743 2.95789ZM4.32924 5.83344L11.7624 8.60458H4.32924V5.83344ZM2.04181 10.6464H32.805C32.805 10.6464 32.8023 12.5778 32.7998 12.6915H2.04705C2.04453 12.5779 2.04181 10.6464 2.04181 10.6464ZM26.1646 25.0071H8.68224C5.17993 22.5849 2.87207 18.8689 2.22679 14.7333H32.62C31.9748 18.8689 29.6669 22.5848 26.1646 25.0071Z" fill="#F1F2F6"/>
</svg>
